<svg width="260" height="321" viewBox="0 0 260 321" fill="none" xmlns="http://www.w3.org/2000/svg">
<path d="M21.6646 103.209C21.6646 103.209 8.42278 109.508 7.30373 122.716C6.18468 135.924 39.6823 172.132 39.6823 172.132L131.555 114.328L97.8449 63.4622L21.6646 103.209Z" fill="#C7DCF9"/>
<path d="M43.5774 114.144C43.5774 114.144 34.2405 125.12 31.932 136.723C29.6235 148.327 30.5999 168.705 31.6262 176.293C47.5255 189.133 105.896 173.539 105.896 173.539L158.378 102.639C158.378 102.639 147.477 84.9441 142.232 80.2451C136.987 75.5462 120.663 70.3644 102.815 78.9844C93.0777 94.992 43.5774 114.144 43.5774 114.144Z" fill="#E1ECFF"/>
<g style="mix-blend-mode:multiply">
<path d="M39.459 119.772C39.459 119.772 62.0699 125.381 86.3337 114.078C110.597 102.774 113.283 75.3642 113.283 75.3642L102.803 78.9892L43.5774 114.144L39.459 119.772Z" fill="#E1ECFF"/>
</g>
<path d="M135.163 196.841C135.163 196.841 163.157 195.134 171.155 196.612C179.153 198.09 203.141 243.788 212.056 247.716C220.972 251.645 227.781 243.661 236.893 237.459C246.006 231.258 254.247 223.941 254.329 221.113C254.412 218.286 249.626 207.334 245.988 205.304C242.35 203.274 232.219 203.797 227.055 207.618C217.666 186.545 204.265 155.795 193.633 152.154C183.001 148.514 151.526 148.563 151.526 148.563L135.163 196.841Z" fill="#E1ECFF"/>
<path d="M59.6973 197.661C59.6973 197.661 79.3374 232.59 95.6068 241.381C111.876 250.172 140.096 247.469 148.33 253.389C156.564 259.309 157.003 290.387 165.351 298.065C173.699 305.742 185.006 310.028 195.196 308.412C205.385 306.797 213.256 301.326 213.049 296.705C212.842 292.084 212.16 288.111 207.176 285.975C202.192 283.839 195.268 282.248 194.782 279.398C194.297 276.549 185.901 233.237 182.839 221.517C179.778 209.798 161.106 194.468 137.917 187.675C115.279 171.178 82.8859 181.084 82.8859 181.084L59.6973 197.661Z" fill="#E1ECFF"/>
<g style="mix-blend-mode:multiply">
<path d="M65.3543 206.979C65.3543 206.979 85.1693 206.656 102.378 197.669C97.7719 179.851 86.9567 175.226 86.9567 175.226L59.6974 197.661L65.3543 206.979Z" fill="#E1ECFF"/>
</g>
<path d="M79.9695 16.6735C63.9457 9.4376 31.3458 8.83054 13.0122 34.9927C-5.32147 61.1548 6.38558 86.2154 15.6005 97.6287C25.2516 109.607 56.8062 126.782 87.8846 106.557C118.963 86.3325 118.85 34.2378 79.9695 16.6735Z" fill="#E1ECFF"/>
<path d="M78.3319 32.0264C92.29 34.3811 102.513 53.0541 99.1441 71.8198C95.7751 90.5855 80.7183 104.066 62.8868 105.369C45.0552 106.672 26.4954 95.688 25.0554 72.9055C23.6752 51.0112 48.0209 26.9157 78.3319 32.0264Z" fill="#1C3177"/>
<g style="mix-blend-mode:multiply">
<path d="M48.476 178.851C65.8141 169.337 51.1462 151.273 68.6976 145.756C92.4476 147.515 98.8729 145.875 98.8729 145.875C98.8729 145.875 56.5347 188.437 48.476 178.851Z" fill="#E1ECFF"/>
</g>
<path d="M59.968 127.115L94.9239 201.753L136.995 197.907L173.899 170.906L183.032 135.271L149.504 53.4905L138.608 93.5694L105.425 123.82L59.968 127.115Z" fill="#FF97C9"/>
<path d="M48.4762 178.851C58.2977 177.384 62.8938 170.615 65.6944 167.56C67.1207 166.001 66.7306 164.745 65.6789 160.595C64.6273 156.445 67.0016 151.956 70.5185 149.866C72.8821 155.113 75.4078 155.968 77.2875 155.588C79.1672 155.208 80.3516 143.744 86.5605 143.426C92.7695 143.108 98.2968 150.979 99.4014 155.021C100.506 159.062 97.2889 171.021 92.8163 179.562C88.3438 188.104 81.9382 198.738 66.1908 202.992C50.4434 207.245 40.8185 199.706 34.8937 189.756C32.8946 186.397 31.9342 181.635 31.6292 176.277C31.6292 176.277 35.5206 180.754 48.4762 178.851Z" fill="#E1ECFF"/>
<path d="M161.05 81.657C161.05 81.657 163.368 87.711 162.25 90.2063C161.132 92.7015 159.522 94.8118 158.449 97.9833C157.377 101.155 160.058 112.655 165.831 114.271C171.603 115.888 175.917 110.347 177.201 107.222C178.486 104.096 177.126 96.2092 174.547 90.8199C171.969 85.4307 167.492 80.7885 161.05 81.657Z" fill="#E1ECFF"/>
<g style="mix-blend-mode:soft-light" opacity="0.48">
<path d="M67.8927 55.8425C77.5938 53.0079 84.6453 47.9282 83.6426 44.4968C82.64 41.0653 73.9628 40.5816 64.2617 43.4162C54.5606 46.2509 47.5091 51.3306 48.5118 54.762C49.5144 58.1934 58.1916 58.6772 67.8927 55.8425Z" fill="white"/>
</g>
<g style="mix-blend-mode:multiply">
<path d="M97.8956 166.667C97.8956 166.667 85.8848 157.307 83.8321 157.445C81.7794 157.584 76.8531 165.955 78.2286 167.993C79.6041 170.031 86.4028 176.55 93.4974 178.218C95.4604 173.769 97.8956 166.667 97.8956 166.667Z" fill="#E1ECFF"/>
</g>
<g style="mix-blend-mode:multiply" opacity="0.5">
<path d="M105.425 123.82L136.995 197.907L173.899 170.906L138.609 93.5693L105.425 123.82Z" fill="#FF97C9"/>
</g>
<g style="mix-blend-mode:multiply">
<path d="M186.086 235.857C182.342 239.41 178.065 242.353 173.409 244.579C169.04 246.61 167.762 250.249 169.556 256.648C171.351 263.047 172.793 273.115 175.774 275.591C178.755 278.067 188.295 276.001 192.871 269.47C190.483 257.371 186.086 235.857 186.086 235.857Z" fill="#E1ECFF"/>
</g>
<g style="mix-blend-mode:multiply">
<path d="M207.732 167.925C207.732 167.925 202.295 170.744 203.09 174.601C203.884 178.459 210.876 196.892 213.247 198.436C215.618 199.98 222.093 196.521 222.093 196.521C213.925 177.553 207.732 167.925 207.732 167.925Z" fill="#E1ECFF"/>
</g>
</svg>
