<?xml version="1.0" standalone="no"?>
<!DOCTYPE svg PUBLIC "-//W3C//DTD SVG 20010904//EN"
 "http://www.w3.org/TR/2001/REC-SVG-20010904/DTD/svg10.dtd">
<svg version="1.0" xmlns="http://www.w3.org/2000/svg"
 width="128.000000pt" height="128.000000pt" viewBox="0 0 128.000000 128.000000"
 preserveAspectRatio="xMidYMid meet">

<g transform="translate(0.000000,128.000000) scale(0.100000,-0.100000)"
fill="#000000" stroke="none">
<path d="M321 1182 c-47 -23 -72 -61 -78 -116 -5 -42 -4 -46 16 -46 35 0 61
-19 61 -43 0 -31 -18 -47 -52 -47 -28 0 -28 -1 -28 -64 l0 -65 31 -3 c18 -2
37 -11 43 -20 16 -26 -4 -52 -43 -56 l-31 -3 0 -65 c0 -64 0 -64 29 -64 63 0
69 -74 6 -86 l-35 -6 0 -57 0 -57 38 -10 c28 -7 38 -15 40 -32 5 -32 -15 -52
-49 -52 -28 0 -29 -2 -29 -47 0 -60 25 -111 69 -140 34 -23 37 -23 365 -23
364 0 375 2 420 63 21 28 21 39 21 485 0 251 -3 469 -8 484 -4 15 -23 39 -43
54 -32 25 -45 28 -137 31 l-102 4 -220 -176 -220 -176 -3 175 c-3 192 -2 189
-61 158z m319 -332 c36 -72 37 -80 5 -110 -14 -13 -25 -34 -25 -46 0 -50 139
-184 191 -184 9 0 24 11 33 25 9 14 25 25 36 25 27 0 128 -51 135 -67 8 -22
-20 -77 -50 -101 -55 -43 -161 -21 -273 58 -126 89 -212 223 -212 333 0 70 11
94 53 112 60 26 74 21 107 -45z"/>
</g>
</svg>
