<svg width="34" height="27" viewBox="0 0 34 27" fill="none" xmlns="http://www.w3.org/2000/svg">
<path d="M2.98053 24.9866C-0.833406 22.0763 1.87232 7.00519 10.1454 2.96222C18.4184 -1.08075 29.238 2.00015 31.8958 7.79405C34.5536 13.588 10.7987 30.947 2.98053 24.9866Z" fill="#99ADF9"/>
<g style="mix-blend-mode:multiply" opacity="0.64">
<path d="M21.7008 5.39051C19.982 6.06918 18.3295 8.08994 18.624 10.1321C18.9185 12.1744 20.8321 13.8461 22.7603 13.4708C24.6885 13.0956 26.1332 9.84276 25.5809 7.61295C25.0285 5.38313 23.0127 4.87595 21.7008 5.39051Z" fill="#99ADF9"/>
</g>
<g style="mix-blend-mode:multiply" opacity="0.64">
<path d="M3.36821 10.6466C3.36821 10.6466 5.93098 12.8855 5.71462 15.6375C5.49825 18.3894 1.34378 18.4164 1.34378 18.4164C1.34378 18.4164 1.64669 13.7292 3.36821 10.6466Z" fill="#99ADF9"/>
</g>
</svg>
