<svg width="56" height="43" viewBox="0 0 56 43" fill="none" xmlns="http://www.w3.org/2000/svg">
<path d="M2.51764 22.8581C-2.55879 13.9232 11.2878 3.06086 23.6842 2.9403C36.0806 2.81974 42.0393 13.8698 46.6997 17.8283C56.4335 26.0874 56.731 34.7899 50.6566 38.9499C44.5821 43.1099 9.23564 34.6769 2.51764 22.8581Z" fill="#99ADF9"/>
<g style="mix-blend-mode:multiply" opacity="0.64">
<path d="M44.3402 15.4431C39.9273 16.5848 40.9171 20.5336 42.5939 24.0583C44.2706 27.583 49.382 28.2753 52.7161 24.7262C50.0368 19.388 44.3402 15.4431 44.3402 15.4431Z" fill="#99ADF9"/>
</g>
<g style="mix-blend-mode:multiply" opacity="0.64">
<path d="M18.2403 11.1457C15.0632 11.7177 12.7668 16.5273 15.277 20.1325C17.7872 23.7376 22.2733 26.1845 24.6651 24.9941C27.0569 23.8038 27.0955 18.238 25.0793 14.8046C23.063 11.3711 21.2942 10.5941 18.2403 11.1457Z" fill="#99ADF9"/>
</g>
</svg>
