<svg width="14" height="15" viewBox="0 0 14 15" fill="none" xmlns="http://www.w3.org/2000/svg">
<path d="M7.50486 1.36585L8.94204 3.84148C9.02825 3.99155 9.1498 4.1183 9.29613 4.2107C9.44247 4.30311 9.60916 4.35838 9.78172 4.37171L12.6377 4.58106C12.8374 4.59605 13.0288 4.66672 13.1904 4.78505C13.3519 4.90339 13.477 5.06464 13.5515 5.25051C13.626 5.43637 13.6469 5.6394 13.6118 5.83654C13.5767 6.03368 13.487 6.21703 13.353 6.36577L11.4432 8.50438C11.327 8.63325 11.2441 8.78849 11.2015 8.95667C11.1589 9.12484 11.158 9.30087 11.1988 9.46949L11.8678 12.2381C11.9151 12.4322 11.907 12.6357 11.8446 12.8255C11.7822 13.0153 11.668 13.1839 11.5148 13.3121C11.3616 13.4404 11.1756 13.5233 10.9778 13.5513C10.7799 13.5794 10.5782 13.5515 10.3954 13.4709L7.7729 12.3133C7.61458 12.2427 7.44139 12.2118 7.26842 12.2235C7.09545 12.2352 6.92797 12.289 6.78056 12.3802L4.33726 13.8795C4.16687 13.9851 3.97029 14.0407 3.76987 14.04C3.56945 14.0393 3.37323 13.9824 3.20354 13.8758C3.03386 13.7691 2.89752 13.617 2.81002 13.4367C2.72252 13.2564 2.68738 13.0551 2.7086 12.8558L3.00388 10.0222C3.02167 9.84961 2.9971 9.6753 2.93231 9.51437C2.86752 9.35343 2.76447 9.21073 2.63207 9.09863L0.45242 7.23582C0.299604 7.10643 0.186115 6.93678 0.124867 6.74614C0.0636188 6.5555 0.0570518 6.3515 0.105911 6.15732C0.15477 5.96313 0.257114 5.78654 0.401291 5.64759C0.545468 5.50863 0.725707 5.41289 0.921562 5.37123L3.72358 4.78029C3.89278 4.74391 4.05054 4.66676 4.18315 4.55554C4.31575 4.44432 4.41918 4.3024 4.48446 4.14211L5.5762 1.49593C5.65199 1.30911 5.77877 1.14738 5.9421 1.0292C6.10543 0.91102 6.2987 0.841159 6.49984 0.827593C6.70099 0.814028 6.90189 0.857304 7.07961 0.952482C7.25733 1.04766 7.40468 1.19091 7.50486 1.36585Z" fill="#FEC272"/>
</svg>
